<svg version="1.1" id="Layer_1" xmlns="http://www.w3.org/2000/svg" xmlns:xlink="http://www.w3.org/1999/xlink" viewBox="0 0 512 512">
	<path fill="currentColor" d="M233,153c-49,12-23,109,38,99C316,239,289,142,233,153z"/>
	<path fill="currentColor" d="M195,373c-1,26,37,39,81,30c51-15,50-65-10-78C230,325,195,348,195,373z"/>
	<path fill="currentColor" d="M256-0.5C114.3-0.5-0.5,114.3-0.5,256S114.3,512.5,256,512.5S512.5,397.7,512.5,256S397.7-0.5,256-0.5z
		 M382,160v103c-1,11-21,13-23,0V160c0-3,2-7,5-9l1-16l-45,38c4,15,8,26,6,43c-4,24-24,34-39,51c-7,12-2,22,21,40c21,17,35,36,31,71
		c-9,35-52,55-90,54c-29,0-88-9-92-54c0-41,60-66,103-67c-11-12-14-21-7-39c-37-3-73-22-78-67h-69l107-94h180l-16,16v25
		C380,153,382,157,382,160z"/>
</svg>
